<?xml version="1.0" encoding="utf-8"?>
<!-- Generator: Adobe Illustrator 16.0.4, SVG Export Plug-In . SVG Version: 6.00 Build 0)  -->
<!DOCTYPE svg PUBLIC "-//W3C//DTD SVG 1.1//EN" "http://www.w3.org/Graphics/SVG/1.1/DTD/svg11.dtd">
<svg version="1.1" id="レイヤー_1" xmlns="http://www.w3.org/2000/svg" xmlns:xlink="http://www.w3.org/1999/xlink" x="0px"
	 y="0px" width="566.929px" height="119.055px" viewBox="14.248 361.417 566.929 119.055"
	 enable-background="new 14.248 361.417 566.929 119.055" xml:space="preserve">
<g>
	<path d="M319.522,451.902c-0.146,0-14.49,0.146-21.077,11.27c-6.732-11.123-20.93-11.27-21.076-11.27H17.564v8.343h259.805
		c1.609,0,16.247,0.585,16.247,16.686h1.463h6.879h1.464c0-15.954,14.637-16.539,16.247-16.686h258.194v-8.343H319.522z"/>
	<g>
		<path d="M118.412,373.156h5.562l24.59,55.181h-8.05l-5.416-12.588H108.02l-4.977,12.588h-8.05L118.412,373.156z M131.732,408.723
			l-10.685-23.565l-10.1,23.565H131.732z"/>
		<path d="M154.711,373.449h45.813v7.025h-19.174v47.863h-7.904v-48.009h-18.735V373.449z"/>
		<path d="M260.682,415.603v8.636c-5.708,3.074-12.441,4.684-19.906,4.684c-6.147,0-11.27-1.171-15.515-3.659
			s-7.611-5.854-10.1-10.099s-3.659-8.929-3.659-14.051c0-8.05,2.781-14.637,8.489-20.199c5.709-5.416,12.734-8.196,21.077-8.196
			c5.708,0,12.148,1.463,19.175,4.537v8.49c-6.44-3.659-12.734-5.562-18.735-5.562c-6.294,0-11.563,2.049-15.662,6.001
			c-4.098,3.952-6.147,8.928-6.147,14.93c0,6.001,2.05,10.978,6.147,14.783c4.099,3.806,9.368,5.854,15.662,5.854
			C247.948,421.75,254.388,419.701,260.682,415.603z"/>
		<path d="M319.522,373.449h7.904v54.742h-7.904v-23.712h-30.737v23.858h-7.903v-54.888h7.903v23.711h30.737V373.449z"/>
		<path d="M403.391,428.337h-18.589v-54.888h14.345c4.537,0,8.05,0.585,10.538,1.756s4.537,2.927,5.854,4.977
			c1.317,2.195,2.05,4.537,2.05,7.465c0,5.416-2.781,9.221-8.344,11.563c3.952,0.732,7.173,2.342,9.515,4.977
			c2.342,2.488,3.513,5.562,3.513,9.075c0,2.781-0.732,5.269-2.195,7.465c-1.464,2.195-3.514,3.952-6.294,5.416
			C411.002,427.604,407.636,428.337,403.391,428.337z M399.439,380.474h-6.732v16.54h5.27c4.244,0,7.172-0.731,8.928-2.342
			c1.757-1.61,2.635-3.659,2.635-6.147C409.392,383.109,406.172,380.474,399.439,380.474z M400.025,403.893h-7.318v17.418h7.758
			c4.244,0,7.172-0.293,8.781-1.024c1.464-0.732,2.781-1.757,3.659-3.074c0.879-1.464,1.464-2.928,1.464-4.538
			s-0.438-3.22-1.464-4.538c-1.024-1.317-2.342-2.488-4.244-3.074C406.757,404.186,403.977,403.893,400.025,403.893z"/>
		<circle fill="#FF5A39" cx="473.794" cy="400.673" r="35.714"/>
		<polygon points="577.716,428.337 554.151,399.795 576.106,373.449 566.739,373.449 549.467,394.086 532.488,373.449 
			522.827,373.449 544.783,399.941 521.218,428.337 530.585,428.337 549.467,405.503 568.201,428.337 		"/>
		<path d="M69.086,373.449L69.086,373.449c-0.293,0-14.345,0.292-21.077,11.27c-6.587-10.978-20.784-11.27-21.077-11.27l0,0h-7.904
			v54.888h8.051v-46.692c1.756,0,16.247,0.732,16.247,16.54h1.463h6.88h1.464c0-15.808,14.49-16.54,16.246-16.54v46.692h8.051
			v-54.888H69.086z"/>
	</g>
</g>
</svg>
